<svg xmlns="http://www.w3.org/2000/svg" viewBox="0 0 32 32">
  <defs>
    <linearGradient id="bg" x1="0%" y1="0%" x2="100%" y2="100%">
      <stop offset="0%" style="stop-color:#6366f1"/>
      <stop offset="100%" style="stop-color:#8b5cf6"/>
    </linearGradient>
    <linearGradient id="brush" x1="0%" y1="0%" x2="100%" y2="100%">
      <stop offset="0%" style="stop-color:#f472b6"/>
      <stop offset="100%" style="stop-color:#c084fc"/>
    </linearGradient>
  </defs>

  <!-- Background -->
  <rect width="32" height="32" rx="6" fill="url(#bg)"/>

  <!-- Simplified brush -->
  <rect x="17" y="6" width="4" height="12" rx="1" fill="white" transform="rotate(45 19 12)"/>
  <path d="M10 20 Q8 24 10 28 Q12 30 16 30 Q20 30 22 28 Q24 24 22 20 Q18 22 16 21.5 Q14 22 10 20Z" fill="url(#brush)"/>

  <!-- Sparkle -->
  <path d="M6 10 L7 12 L9 13 L7 14 L6 16 L5 14 L3 13 L5 12 Z" fill="#fbbf24"/>
</svg>
